<svg xmlns="http://www.w3.org/2000/svg" x="0px" y="0px" width="100" height="100" viewBox="0 0 50 50">
    <path fill="#bebddb" d="M 9 7 L 12 41 L 26 45 L 40 41 C 41 29.667 42 18.333 43 7 L 9 7 z M 11.183594 9 L 40.816406 9 L 38.128906 39.455078 L 26 42.919922 L 13.871094 39.455078 L 11.183594 9 z M 18.550781 15 L 17.589844 27 L 30.580078 27 L 30.169922 32 L 26 32.619141 L 21.880859 32 L 21.699219 30 L 17.839844 30 L 18.230469 35 L 25.990234 37 L 33.759766 35 L 34.75 23 L 22.089844 23 L 22.410156 19 L 30.769531 19 L 31 21 L 34.699219 21 L 34 15 L 18.550781 15 z"></path>
</svg>
